<mxfile host="app.diagrams.net" modified="2023-03-27T08:50:11.465Z" agent="Mozilla/5.0 (Windows NT 10.0; Win64; x64) AppleWebKit/537.36 (KHTML, like Gecko) Chrome/111.0.0.0 Safari/537.36" etag="P-IGXpTm7zlec8EZdrud" version="21.1.1" type="device" pages="2">
  <diagram id="kgpKYQtTHZ0yAKxKKP6v" name="Update">
    <mxGraphModel dx="1984" dy="559" grid="1" gridSize="10" guides="1" tooltips="1" connect="1" arrows="1" fold="1" page="1" pageScale="1" pageWidth="850" pageHeight="1100" math="0" shadow="0">
      <root>
        <mxCell id="0" />
        <mxCell id="1" parent="0" />
        <mxCell id="b2dAvK26NsnJdoIZ1mw7-37" value="alt validate infor teacher" style="shape=umlFrame;whiteSpace=wrap;html=1;width=160;height=30;" parent="1" vertex="1">
          <mxGeometry x="-190" y="620" width="870" height="250" as="geometry" />
        </mxCell>
        <mxCell id="1rYxMRe_m1wBD9LGmmaj-11" style="edgeStyle=orthogonalEdgeStyle;rounded=0;orthogonalLoop=1;jettySize=auto;html=1;dashed=1;endArrow=none;endFill=0;" parent="1" edge="1">
          <mxGeometry relative="1" as="geometry">
            <mxPoint x="-165" y="950" as="targetPoint" />
            <mxPoint x="-160" y="470" as="sourcePoint" />
            <Array as="points">
              <mxPoint x="-160" y="950" />
            </Array>
          </mxGeometry>
        </mxCell>
        <mxCell id="1rYxMRe_m1wBD9LGmmaj-10" value="Admin" style="shape=umlActor;verticalLabelPosition=bottom;verticalAlign=top;html=1;" parent="1" vertex="1">
          <mxGeometry x="-180" y="380" width="40" height="60" as="geometry" />
        </mxCell>
        <mxCell id="1rYxMRe_m1wBD9LGmmaj-12" value="View" style="shape=umlLifeline;perimeter=lifelinePerimeter;container=1;collapsible=0;recursiveResize=0;rounded=0;shadow=0;strokeWidth=1;" parent="1" vertex="1">
          <mxGeometry x="-50" y="410" width="100" height="550" as="geometry" />
        </mxCell>
        <mxCell id="b2dAvK26NsnJdoIZ1mw7-11" value="5.2. return invalid view" style="html=1;verticalAlign=bottom;endArrow=open;dashed=1;endSize=8;exitX=0;exitY=0.322;exitDx=0;exitDy=0;exitPerimeter=0;entryX=0.953;entryY=0.422;entryDx=0;entryDy=0;entryPerimeter=0;" parent="1rYxMRe_m1wBD9LGmmaj-12" target="b2dAvK26NsnJdoIZ1mw7-13" edge="1">
          <mxGeometry relative="1" as="geometry">
            <mxPoint x="180" y="270.06999999999994" as="sourcePoint" />
            <mxPoint x="60" y="270" as="targetPoint" />
          </mxGeometry>
        </mxCell>
        <mxCell id="1rYxMRe_m1wBD9LGmmaj-13" value=":TeacherController" style="shape=umlLifeline;perimeter=lifelinePerimeter;container=1;collapsible=0;recursiveResize=0;rounded=0;shadow=0;strokeWidth=1;" parent="1" vertex="1">
          <mxGeometry x="80" y="410" width="105" height="550" as="geometry" />
        </mxCell>
        <mxCell id="b2dAvK26NsnJdoIZ1mw7-9" value="4.SaveTeacher()" style="html=1;verticalAlign=bottom;endArrow=block;entryX=-0.092;entryY=0.077;entryDx=0;entryDy=0;entryPerimeter=0;" parent="1rYxMRe_m1wBD9LGmmaj-13" target="b2dAvK26NsnJdoIZ1mw7-15" edge="1">
          <mxGeometry width="80" relative="1" as="geometry">
            <mxPoint x="55" y="190" as="sourcePoint" />
            <mxPoint x="195" y="190" as="targetPoint" />
          </mxGeometry>
        </mxCell>
        <mxCell id="b2dAvK26NsnJdoIZ1mw7-10" value="5.1. return invalid view" style="html=1;verticalAlign=bottom;endArrow=open;dashed=1;endSize=8;" parent="1rYxMRe_m1wBD9LGmmaj-13" edge="1">
          <mxGeometry relative="1" as="geometry">
            <mxPoint x="195" y="250" as="sourcePoint" />
            <mxPoint x="60" y="250" as="targetPoint" />
          </mxGeometry>
        </mxCell>
        <mxCell id="b2dAvK26NsnJdoIZ1mw7-41" value="" style="html=1;points=[];perimeter=orthogonalPerimeter;" parent="1rYxMRe_m1wBD9LGmmaj-13" vertex="1">
          <mxGeometry x="47.5" y="130" width="10" height="320" as="geometry" />
        </mxCell>
        <mxCell id="1rYxMRe_m1wBD9LGmmaj-14" value=":TeacherService" style="shape=umlLifeline;perimeter=lifelinePerimeter;container=1;collapsible=0;recursiveResize=0;rounded=0;shadow=0;strokeWidth=1;" parent="1" vertex="1">
          <mxGeometry x="240" y="410" width="90" height="550" as="geometry" />
        </mxCell>
        <mxCell id="b2dAvK26NsnJdoIZ1mw7-33" value="9. Return Result" style="html=1;verticalAlign=bottom;endArrow=open;dashed=1;endSize=8;entryX=0.977;entryY=0.842;entryDx=0;entryDy=0;entryPerimeter=0;" parent="1rYxMRe_m1wBD9LGmmaj-14" target="b2dAvK26NsnJdoIZ1mw7-15" edge="1">
          <mxGeometry relative="1" as="geometry">
            <mxPoint x="215" y="390" as="sourcePoint" />
            <mxPoint x="65" y="390" as="targetPoint" />
          </mxGeometry>
        </mxCell>
        <mxCell id="b2dAvK26NsnJdoIZ1mw7-15" value="" style="html=1;points=[];perimeter=orthogonalPerimeter;" parent="1rYxMRe_m1wBD9LGmmaj-14" vertex="1">
          <mxGeometry x="40" y="170" width="10" height="260" as="geometry" />
        </mxCell>
        <mxCell id="1rYxMRe_m1wBD9LGmmaj-15" value=":TeacherRepository" style="shape=umlLifeline;perimeter=lifelinePerimeter;container=1;collapsible=0;recursiveResize=0;rounded=0;shadow=0;strokeWidth=1;" parent="1" vertex="1">
          <mxGeometry x="405" y="410" width="105" height="550" as="geometry" />
        </mxCell>
        <mxCell id="b2dAvK26NsnJdoIZ1mw7-25" value="" style="html=1;points=[];perimeter=orthogonalPerimeter;" parent="1rYxMRe_m1wBD9LGmmaj-15" vertex="1">
          <mxGeometry x="50" y="220" width="10" height="190" as="geometry" />
        </mxCell>
        <mxCell id="1rYxMRe_m1wBD9LGmmaj-16" value="Database" style="shape=umlLifeline;perimeter=lifelinePerimeter;container=1;collapsible=0;recursiveResize=0;rounded=0;shadow=0;strokeWidth=1;" parent="1" vertex="1">
          <mxGeometry x="580" y="410" width="110" height="550" as="geometry" />
        </mxCell>
        <mxCell id="b2dAvK26NsnJdoIZ1mw7-26" value="" style="html=1;points=[];perimeter=orthogonalPerimeter;" parent="1rYxMRe_m1wBD9LGmmaj-16" vertex="1">
          <mxGeometry x="50" y="310" width="10" height="60" as="geometry" />
        </mxCell>
        <mxCell id="b2dAvK26NsnJdoIZ1mw7-2" value="1. edit info teacher" style="html=1;verticalAlign=bottom;endArrow=block;entryX=-0.003;entryY=0.047;entryDx=0;entryDy=0;entryPerimeter=0;" parent="1" target="b2dAvK26NsnJdoIZ1mw7-13" edge="1">
          <mxGeometry width="80" relative="1" as="geometry">
            <mxPoint x="-160" y="510" as="sourcePoint" />
            <mxPoint x="-10" y="510" as="targetPoint" />
          </mxGeometry>
        </mxCell>
        <mxCell id="b2dAvK26NsnJdoIZ1mw7-4" value="2. Click button save" style="html=1;verticalAlign=bottom;endArrow=block;entryX=-0.074;entryY=0.112;entryDx=0;entryDy=0;entryPerimeter=0;" parent="1" target="b2dAvK26NsnJdoIZ1mw7-13" edge="1">
          <mxGeometry width="80" relative="1" as="geometry">
            <mxPoint x="-160" y="540" as="sourcePoint" />
            <mxPoint x="-10" y="540" as="targetPoint" />
          </mxGeometry>
        </mxCell>
        <mxCell id="b2dAvK26NsnJdoIZ1mw7-6" value="3.SaveTeacher()" style="html=1;verticalAlign=bottom;endArrow=block;entryX=-0.2;entryY=0.07;entryDx=0;entryDy=0;entryPerimeter=0;" parent="1" source="1rYxMRe_m1wBD9LGmmaj-12" edge="1">
          <mxGeometry width="80" relative="1" as="geometry">
            <mxPoint x="20" y="570" as="sourcePoint" />
            <mxPoint x="128" y="570.45" as="targetPoint" />
          </mxGeometry>
        </mxCell>
        <mxCell id="b2dAvK26NsnJdoIZ1mw7-13" value="" style="html=1;points=[];perimeter=orthogonalPerimeter;" parent="1" vertex="1">
          <mxGeometry x="-5" y="490" width="10" height="450" as="geometry" />
        </mxCell>
        <mxCell id="b2dAvK26NsnJdoIZ1mw7-20" value="6.Save()" style="html=1;verticalAlign=bottom;endArrow=block;exitX=0.998;exitY=0.232;exitDx=0;exitDy=0;exitPerimeter=0;entryX=0.002;entryY=0.053;entryDx=0;entryDy=0;entryPerimeter=0;" parent="1" source="b2dAvK26NsnJdoIZ1mw7-15" target="b2dAvK26NsnJdoIZ1mw7-25" edge="1">
          <mxGeometry width="80" relative="1" as="geometry">
            <mxPoint x="310" y="710" as="sourcePoint" />
            <mxPoint x="450" y="644" as="targetPoint" />
          </mxGeometry>
        </mxCell>
        <mxCell id="b2dAvK26NsnJdoIZ1mw7-21" value="7.executeUpdate()" style="html=1;verticalAlign=bottom;endArrow=block;exitX=1;exitY=0.526;exitDx=0;exitDy=0;exitPerimeter=0;entryX=0.015;entryY=0.156;entryDx=0;entryDy=0;entryPerimeter=0;" parent="1" source="b2dAvK26NsnJdoIZ1mw7-25" target="b2dAvK26NsnJdoIZ1mw7-26" edge="1">
          <mxGeometry width="80" relative="1" as="geometry">
            <mxPoint x="470" y="730" as="sourcePoint" />
            <mxPoint x="620" y="730" as="targetPoint" />
          </mxGeometry>
        </mxCell>
        <mxCell id="b2dAvK26NsnJdoIZ1mw7-34" value="10. Return Result" style="html=1;verticalAlign=bottom;endArrow=open;dashed=1;endSize=8;exitX=-0.034;exitY=0.963;exitDx=0;exitDy=0;exitPerimeter=0;" parent="1" source="b2dAvK26NsnJdoIZ1mw7-15" edge="1">
          <mxGeometry relative="1" as="geometry">
            <mxPoint x="270" y="830" as="sourcePoint" />
            <mxPoint x="140" y="830" as="targetPoint" />
          </mxGeometry>
        </mxCell>
        <mxCell id="b2dAvK26NsnJdoIZ1mw7-35" value="11. Return Result" style="html=1;verticalAlign=bottom;endArrow=open;dashed=1;endSize=8;entryX=0.957;entryY=0.792;entryDx=0;entryDy=0;entryPerimeter=0;exitX=-0.189;exitY=0.959;exitDx=0;exitDy=0;exitPerimeter=0;" parent="1" source="b2dAvK26NsnJdoIZ1mw7-41" target="b2dAvK26NsnJdoIZ1mw7-13" edge="1">
          <mxGeometry relative="1" as="geometry">
            <mxPoint x="130" y="846" as="sourcePoint" />
            <mxPoint x="-10" y="850" as="targetPoint" />
          </mxGeometry>
        </mxCell>
        <mxCell id="b2dAvK26NsnJdoIZ1mw7-36" value="12. Display message update" style="html=1;verticalAlign=bottom;endArrow=open;dashed=1;endSize=8;" parent="1" edge="1">
          <mxGeometry relative="1" as="geometry">
            <mxPoint x="-5" y="920" as="sourcePoint" />
            <mxPoint x="-160" y="920" as="targetPoint" />
            <Array as="points">
              <mxPoint x="-90" y="920" />
            </Array>
          </mxGeometry>
        </mxCell>
        <mxCell id="b2dAvK26NsnJdoIZ1mw7-32" value="8. Return Result" style="html=1;verticalAlign=bottom;endArrow=open;dashed=1;endSize=8;entryX=1.415;entryY=0.73;entryDx=0;entryDy=0;entryPerimeter=0;exitX=-0.036;exitY=0.819;exitDx=0;exitDy=0;exitPerimeter=0;" parent="1" source="b2dAvK26NsnJdoIZ1mw7-26" target="b2dAvK26NsnJdoIZ1mw7-25" edge="1">
          <mxGeometry relative="1" as="geometry">
            <mxPoint x="620" y="770" as="sourcePoint" />
            <mxPoint x="470" y="770" as="targetPoint" />
          </mxGeometry>
        </mxCell>
        <mxCell id="b2dAvK26NsnJdoIZ1mw7-17" value="[invalid info]" style="text;html=1;align=center;verticalAlign=middle;resizable=0;points=[];autosize=1;strokeColor=none;fillColor=none;" parent="1" vertex="1">
          <mxGeometry x="-155" y="735" width="90" height="30" as="geometry" />
        </mxCell>
        <mxCell id="b2dAvK26NsnJdoIZ1mw7-18" value="[valid info]" style="text;html=1;align=center;verticalAlign=middle;resizable=0;points=[];autosize=1;strokeColor=none;fillColor=none;" parent="1" vertex="1">
          <mxGeometry x="-150" y="650" width="80" height="30" as="geometry" />
        </mxCell>
        <mxCell id="n6bYkw5uS1Dy2Mw1IZPa-4" value="" style="endArrow=none;dashed=1;html=1;dashPattern=1 3;strokeWidth=2;rounded=0;" parent="1" edge="1">
          <mxGeometry width="50" height="50" relative="1" as="geometry">
            <mxPoint x="-250" y="700" as="sourcePoint" />
            <mxPoint x="720" y="700" as="targetPoint" />
          </mxGeometry>
        </mxCell>
      </root>
    </mxGraphModel>
  </diagram>
  <diagram id="io_VU6igj7z9Doh1AbqS" name="Create">
    <mxGraphModel dx="1961" dy="559" grid="1" gridSize="10" guides="1" tooltips="1" connect="1" arrows="1" fold="1" page="1" pageScale="1" pageWidth="827" pageHeight="1169" math="0" shadow="0">
      <root>
        <mxCell id="0" />
        <mxCell id="1" parent="0" />
        <mxCell id="3U3rnmwADKVfiF2Mk6Z_-28" value="alt validate infor teacher" style="shape=umlFrame;whiteSpace=wrap;html=1;width=160;height=30;" parent="1" vertex="1">
          <mxGeometry x="-190" y="620" width="870" height="250" as="geometry" />
        </mxCell>
        <mxCell id="3U3rnmwADKVfiF2Mk6Z_-1" style="edgeStyle=orthogonalEdgeStyle;rounded=0;orthogonalLoop=1;jettySize=auto;html=1;dashed=1;endArrow=none;endFill=0;" parent="1" edge="1">
          <mxGeometry relative="1" as="geometry">
            <mxPoint x="-165" y="950" as="targetPoint" />
            <mxPoint x="-160" y="470" as="sourcePoint" />
            <Array as="points">
              <mxPoint x="-160" y="950" />
            </Array>
          </mxGeometry>
        </mxCell>
        <mxCell id="3U3rnmwADKVfiF2Mk6Z_-2" value="Admin" style="shape=umlActor;verticalLabelPosition=bottom;verticalAlign=top;html=1;" parent="1" vertex="1">
          <mxGeometry x="-180" y="380" width="40" height="60" as="geometry" />
        </mxCell>
        <mxCell id="3U3rnmwADKVfiF2Mk6Z_-3" value="View" style="shape=umlLifeline;perimeter=lifelinePerimeter;container=1;collapsible=0;recursiveResize=0;rounded=0;shadow=0;strokeWidth=1;" parent="1" vertex="1">
          <mxGeometry x="-50" y="410" width="100" height="550" as="geometry" />
        </mxCell>
        <mxCell id="3U3rnmwADKVfiF2Mk6Z_-4" value="5.2. return invalid view" style="html=1;verticalAlign=bottom;endArrow=open;dashed=1;endSize=8;exitX=0;exitY=0.322;exitDx=0;exitDy=0;exitPerimeter=0;entryX=0.953;entryY=0.422;entryDx=0;entryDy=0;entryPerimeter=0;" parent="3U3rnmwADKVfiF2Mk6Z_-3" target="3U3rnmwADKVfiF2Mk6Z_-19" edge="1">
          <mxGeometry relative="1" as="geometry">
            <mxPoint x="180" y="270.06999999999994" as="sourcePoint" />
            <mxPoint x="60" y="270" as="targetPoint" />
          </mxGeometry>
        </mxCell>
        <mxCell id="3U3rnmwADKVfiF2Mk6Z_-5" value=":TeacherController" style="shape=umlLifeline;perimeter=lifelinePerimeter;container=1;collapsible=0;recursiveResize=0;rounded=0;shadow=0;strokeWidth=1;" parent="1" vertex="1">
          <mxGeometry x="80" y="410" width="105" height="550" as="geometry" />
        </mxCell>
        <mxCell id="3U3rnmwADKVfiF2Mk6Z_-6" value="4.AddTeacher()" style="html=1;verticalAlign=bottom;endArrow=block;entryX=-0.092;entryY=0.077;entryDx=0;entryDy=0;entryPerimeter=0;" parent="3U3rnmwADKVfiF2Mk6Z_-5" target="3U3rnmwADKVfiF2Mk6Z_-11" edge="1">
          <mxGeometry width="80" relative="1" as="geometry">
            <mxPoint x="55" y="190" as="sourcePoint" />
            <mxPoint x="195" y="190" as="targetPoint" />
          </mxGeometry>
        </mxCell>
        <mxCell id="3U3rnmwADKVfiF2Mk6Z_-7" value="5.1. return invalid view" style="html=1;verticalAlign=bottom;endArrow=open;dashed=1;endSize=8;" parent="3U3rnmwADKVfiF2Mk6Z_-5" edge="1">
          <mxGeometry relative="1" as="geometry">
            <mxPoint x="195" y="250" as="sourcePoint" />
            <mxPoint x="60" y="250" as="targetPoint" />
          </mxGeometry>
        </mxCell>
        <mxCell id="3U3rnmwADKVfiF2Mk6Z_-8" value="" style="html=1;points=[];perimeter=orthogonalPerimeter;" parent="3U3rnmwADKVfiF2Mk6Z_-5" vertex="1">
          <mxGeometry x="47.5" y="130" width="10" height="320" as="geometry" />
        </mxCell>
        <mxCell id="3U3rnmwADKVfiF2Mk6Z_-9" value=":TeacherService" style="shape=umlLifeline;perimeter=lifelinePerimeter;container=1;collapsible=0;recursiveResize=0;rounded=0;shadow=0;strokeWidth=1;" parent="1" vertex="1">
          <mxGeometry x="240" y="410" width="90" height="550" as="geometry" />
        </mxCell>
        <mxCell id="3U3rnmwADKVfiF2Mk6Z_-10" value="9. Return Result" style="html=1;verticalAlign=bottom;endArrow=open;dashed=1;endSize=8;entryX=0.977;entryY=0.842;entryDx=0;entryDy=0;entryPerimeter=0;" parent="3U3rnmwADKVfiF2Mk6Z_-9" target="3U3rnmwADKVfiF2Mk6Z_-11" edge="1">
          <mxGeometry relative="1" as="geometry">
            <mxPoint x="215" y="390" as="sourcePoint" />
            <mxPoint x="65" y="390" as="targetPoint" />
          </mxGeometry>
        </mxCell>
        <mxCell id="3U3rnmwADKVfiF2Mk6Z_-11" value="" style="html=1;points=[];perimeter=orthogonalPerimeter;" parent="3U3rnmwADKVfiF2Mk6Z_-9" vertex="1">
          <mxGeometry x="40" y="170" width="10" height="260" as="geometry" />
        </mxCell>
        <mxCell id="3U3rnmwADKVfiF2Mk6Z_-12" value=":TeacherRepository" style="shape=umlLifeline;perimeter=lifelinePerimeter;container=1;collapsible=0;recursiveResize=0;rounded=0;shadow=0;strokeWidth=1;" parent="1" vertex="1">
          <mxGeometry x="405" y="410" width="105" height="550" as="geometry" />
        </mxCell>
        <mxCell id="3U3rnmwADKVfiF2Mk6Z_-13" value="" style="html=1;points=[];perimeter=orthogonalPerimeter;" parent="3U3rnmwADKVfiF2Mk6Z_-12" vertex="1">
          <mxGeometry x="50" y="220" width="10" height="190" as="geometry" />
        </mxCell>
        <mxCell id="3U3rnmwADKVfiF2Mk6Z_-14" value="Database" style="shape=umlLifeline;perimeter=lifelinePerimeter;container=1;collapsible=0;recursiveResize=0;rounded=0;shadow=0;strokeWidth=1;" parent="1" vertex="1">
          <mxGeometry x="580" y="410" width="110" height="550" as="geometry" />
        </mxCell>
        <mxCell id="3U3rnmwADKVfiF2Mk6Z_-15" value="" style="html=1;points=[];perimeter=orthogonalPerimeter;" parent="3U3rnmwADKVfiF2Mk6Z_-14" vertex="1">
          <mxGeometry x="50" y="310" width="10" height="60" as="geometry" />
        </mxCell>
        <mxCell id="3U3rnmwADKVfiF2Mk6Z_-16" value="1. add info teacher" style="html=1;verticalAlign=bottom;endArrow=block;entryX=-0.003;entryY=0.047;entryDx=0;entryDy=0;entryPerimeter=0;" parent="1" target="3U3rnmwADKVfiF2Mk6Z_-19" edge="1">
          <mxGeometry width="80" relative="1" as="geometry">
            <mxPoint x="-160" y="510" as="sourcePoint" />
            <mxPoint x="-10" y="510" as="targetPoint" />
          </mxGeometry>
        </mxCell>
        <mxCell id="3U3rnmwADKVfiF2Mk6Z_-17" value="2. Click button save" style="html=1;verticalAlign=bottom;endArrow=block;entryX=-0.074;entryY=0.112;entryDx=0;entryDy=0;entryPerimeter=0;" parent="1" target="3U3rnmwADKVfiF2Mk6Z_-19" edge="1">
          <mxGeometry width="80" relative="1" as="geometry">
            <mxPoint x="-160" y="540" as="sourcePoint" />
            <mxPoint x="-10" y="540" as="targetPoint" />
          </mxGeometry>
        </mxCell>
        <mxCell id="3U3rnmwADKVfiF2Mk6Z_-18" value="3.AddTeacher()" style="html=1;verticalAlign=bottom;endArrow=block;entryX=-0.2;entryY=0.07;entryDx=0;entryDy=0;entryPerimeter=0;" parent="1" source="3U3rnmwADKVfiF2Mk6Z_-3" edge="1">
          <mxGeometry width="80" relative="1" as="geometry">
            <mxPoint x="20" y="570" as="sourcePoint" />
            <mxPoint x="128" y="570.45" as="targetPoint" />
          </mxGeometry>
        </mxCell>
        <mxCell id="3U3rnmwADKVfiF2Mk6Z_-19" value="" style="html=1;points=[];perimeter=orthogonalPerimeter;" parent="1" vertex="1">
          <mxGeometry x="-5" y="490" width="10" height="450" as="geometry" />
        </mxCell>
        <mxCell id="3U3rnmwADKVfiF2Mk6Z_-20" value="6.Add()" style="html=1;verticalAlign=bottom;endArrow=block;exitX=0.998;exitY=0.232;exitDx=0;exitDy=0;exitPerimeter=0;entryX=0.002;entryY=0.053;entryDx=0;entryDy=0;entryPerimeter=0;" parent="1" source="3U3rnmwADKVfiF2Mk6Z_-11" target="3U3rnmwADKVfiF2Mk6Z_-13" edge="1">
          <mxGeometry width="80" relative="1" as="geometry">
            <mxPoint x="310" y="710" as="sourcePoint" />
            <mxPoint x="450" y="644" as="targetPoint" />
          </mxGeometry>
        </mxCell>
        <mxCell id="3U3rnmwADKVfiF2Mk6Z_-21" value="7.executeAdd()" style="html=1;verticalAlign=bottom;endArrow=block;exitX=1;exitY=0.526;exitDx=0;exitDy=0;exitPerimeter=0;entryX=0.015;entryY=0.156;entryDx=0;entryDy=0;entryPerimeter=0;" parent="1" source="3U3rnmwADKVfiF2Mk6Z_-13" target="3U3rnmwADKVfiF2Mk6Z_-15" edge="1">
          <mxGeometry width="80" relative="1" as="geometry">
            <mxPoint x="470" y="730" as="sourcePoint" />
            <mxPoint x="620" y="730" as="targetPoint" />
          </mxGeometry>
        </mxCell>
        <mxCell id="3U3rnmwADKVfiF2Mk6Z_-22" value="10. Return Result" style="html=1;verticalAlign=bottom;endArrow=open;dashed=1;endSize=8;exitX=-0.034;exitY=0.963;exitDx=0;exitDy=0;exitPerimeter=0;" parent="1" source="3U3rnmwADKVfiF2Mk6Z_-11" edge="1">
          <mxGeometry relative="1" as="geometry">
            <mxPoint x="270" y="830" as="sourcePoint" />
            <mxPoint x="140" y="830" as="targetPoint" />
          </mxGeometry>
        </mxCell>
        <mxCell id="3U3rnmwADKVfiF2Mk6Z_-23" value="11. Return Result" style="html=1;verticalAlign=bottom;endArrow=open;dashed=1;endSize=8;entryX=0.957;entryY=0.792;entryDx=0;entryDy=0;entryPerimeter=0;exitX=-0.189;exitY=0.959;exitDx=0;exitDy=0;exitPerimeter=0;" parent="1" source="3U3rnmwADKVfiF2Mk6Z_-8" target="3U3rnmwADKVfiF2Mk6Z_-19" edge="1">
          <mxGeometry relative="1" as="geometry">
            <mxPoint x="130" y="846" as="sourcePoint" />
            <mxPoint x="-10" y="850" as="targetPoint" />
          </mxGeometry>
        </mxCell>
        <mxCell id="3U3rnmwADKVfiF2Mk6Z_-24" value="12. Display message update" style="html=1;verticalAlign=bottom;endArrow=open;dashed=1;endSize=8;" parent="1" edge="1">
          <mxGeometry relative="1" as="geometry">
            <mxPoint x="-5" y="920" as="sourcePoint" />
            <mxPoint x="-160" y="920" as="targetPoint" />
            <Array as="points">
              <mxPoint x="-90" y="920" />
            </Array>
          </mxGeometry>
        </mxCell>
        <mxCell id="3U3rnmwADKVfiF2Mk6Z_-25" value="8. Return Result" style="html=1;verticalAlign=bottom;endArrow=open;dashed=1;endSize=8;entryX=1.415;entryY=0.73;entryDx=0;entryDy=0;entryPerimeter=0;exitX=-0.036;exitY=0.819;exitDx=0;exitDy=0;exitPerimeter=0;" parent="1" source="3U3rnmwADKVfiF2Mk6Z_-15" target="3U3rnmwADKVfiF2Mk6Z_-13" edge="1">
          <mxGeometry relative="1" as="geometry">
            <mxPoint x="620" y="770" as="sourcePoint" />
            <mxPoint x="470" y="770" as="targetPoint" />
          </mxGeometry>
        </mxCell>
        <mxCell id="3U3rnmwADKVfiF2Mk6Z_-26" value="[invalid info]" style="text;html=1;align=center;verticalAlign=middle;resizable=0;points=[];autosize=1;strokeColor=none;fillColor=none;" parent="1" vertex="1">
          <mxGeometry x="-155" y="735" width="90" height="30" as="geometry" />
        </mxCell>
        <mxCell id="3U3rnmwADKVfiF2Mk6Z_-27" value="[valid info]" style="text;html=1;align=center;verticalAlign=middle;resizable=0;points=[];autosize=1;strokeColor=none;fillColor=none;" parent="1" vertex="1">
          <mxGeometry x="-150" y="650" width="80" height="30" as="geometry" />
        </mxCell>
        <mxCell id="3U3rnmwADKVfiF2Mk6Z_-29" value="" style="endArrow=none;dashed=1;html=1;dashPattern=1 3;strokeWidth=2;rounded=0;" parent="1" edge="1">
          <mxGeometry width="50" height="50" relative="1" as="geometry">
            <mxPoint x="-250" y="700" as="sourcePoint" />
            <mxPoint x="720" y="700" as="targetPoint" />
          </mxGeometry>
        </mxCell>
      </root>
    </mxGraphModel>
  </diagram>
</mxfile>
